<svg id="Layer_1" enable-background="new 0 0 100 100" height="512" viewBox="0 0 100 100" width="512" xmlns="http://www.w3.org/2000/svg"><path d="m7 93h82v2h-82z" fill="#e1e1e0"/><path d="m41 75h11v16h-11z" fill="#e45425"/><g><path d="m44 32h-4c-.55 0-1 .45-1 1v7c0 .55.45 1 1 1h4c.55 0 1-.45 1-1v-7c0-.55-.45-1-1-1zm-1 7h-2v-5h2z"/></g><g><path d="m53 32h-4c-.55 0-1 .45-1 1v7c0 .55.45 1 1 1h4c.55 0 1-.45 1-1v-7c0-.55-.45-1-1-1zm-1 7h-2v-5h2z"/></g><g><path d="m71 52h-4c-.55 0-1 .45-1 1v7c0 .55.45 1 1 1h4c.55 0 1-.45 1-1v-7c0-.55-.45-1-1-1zm-1 7h-2v-5h2z"/></g><g><path d="m80 52h-4c-.55 0-1 .45-1 1v7c0 .55.45 1 1 1h4c.55 0 1-.45 1-1v-7c0-.55-.45-1-1-1zm-1 7h-2v-5h2z"/></g><g><path d="m71 65h-4c-.55 0-1 .45-1 1v7c0 .55.45 1 1 1h4c.55 0 1-.45 1-1v-7c0-.55-.45-1-1-1zm-1 7h-2v-5h2z"/></g><g><path d="m71 78h-4c-.55 0-1 .45-1 1v7c0 .55.45 1 1 1h4c.55 0 1-.45 1-1v-7c0-.55-.45-1-1-1zm-1 7h-2v-5h2z"/></g><g><path d="m19 39h-4c-.55 0-1 .45-1 1v7c0 .55.45 1 1 1h4c.55 0 1-.45 1-1v-7c0-.55-.45-1-1-1zm-1 7h-2v-5h2z"/></g><g><path d="m28 39h-4c-.55 0-1 .45-1 1v7c0 .55.45 1 1 1h4c.55 0 1-.45 1-1v-7c0-.55-.45-1-1-1zm-1 7h-2v-5h2z"/></g><g><path d="m19 52h-4c-.55 0-1 .45-1 1v7c0 .55.45 1 1 1h4c.55 0 1-.45 1-1v-7c0-.55-.45-1-1-1zm-1 7h-2v-5h2z"/></g><g><path d="m28 52h-4c-.55 0-1 .45-1 1v7c0 .55.45 1 1 1h4c.55 0 1-.45 1-1v-7c0-.55-.45-1-1-1zm-1 7h-2v-5h2z"/></g><g><path d="m19 65h-4c-.55 0-1 .45-1 1v7c0 .55.45 1 1 1h4c.55 0 1-.45 1-1v-7c0-.55-.45-1-1-1zm-1 7h-2v-5h2z"/></g><g><path d="m28 65h-4c-.55 0-1 .45-1 1v7c0 .55.45 1 1 1h4c.55 0 1-.45 1-1v-7c0-.55-.45-1-1-1zm-1 7h-2v-5h2z"/></g><g><path d="m19 78h-4c-.55 0-1 .45-1 1v7c0 .55.45 1 1 1h4c.55 0 1-.45 1-1v-7c0-.55-.45-1-1-1zm-1 7h-2v-5h2z"/></g><path d="m28 78h-4c-.55 0-1 .45-1 1v7c0 .55.45 1 1 1h4c.55 0 1-.45 1-1v-7c0-.55-.45-1-1-1zm-1 7h-2v-5h2z"/><path d="m32 35h-21v56h21c-.01-7.04 0-48.96 0-56zm-12 51c0 .55-.45 1-1 1h-4c-.55 0-1-.45-1-1v-7c0-.55.45-1 1-1h4c.55 0 1 .45 1 1zm0-13c0 .55-.45 1-1 1h-4c-.55 0-1-.45-1-1v-7c0-.55.45-1 1-1h4c.55 0 1 .45 1 1zm0-13c0 .55-.45 1-1 1h-4c-.55 0-1-.45-1-1v-7c0-.55.45-1 1-1h4c.55 0 1 .45 1 1zm0-13c0 .55-.45 1-1 1h-4c-.55 0-1-.45-1-1v-7c0-.55.45-1 1-1h4c.55 0 1 .45 1 1zm9 39c0 .55-.45 1-1 1h-4c-.55 0-1-.45-1-1v-7c0-.55.45-1 1-1h4c.55 0 1 .45 1 1zm0-13c0 .55-.45 1-1 1h-4c-.55 0-1-.45-1-1v-7c0-.55.45-1 1-1h4c.55 0 1 .45 1 1zm0-13c0 .55-.45 1-1 1h-4c-.55 0-1-.45-1-1v-7c0-.55.45-1 1-1h4c.55 0 1 .45 1 1zm0-13c0 .55-.45 1-1 1h-4c-.55 0-1-.45-1-1v-7c0-.55.45-1 1-1h4c.55 0 1 .45 1 1z" fill="#86d5f7"/><g><path d="m44 45h-4c-.55 0-1 .45-1 1v7c0 .55.45 1 1 1h4c.55 0 1-.45 1-1v-7c0-.55-.45-1-1-1zm-1 7h-2v-5h2z"/></g><g><path d="m53 45h-4c-.55 0-1 .45-1 1v7c0 .55.45 1 1 1h4c.55 0 1-.45 1-1v-7c0-.55-.45-1-1-1zm-1 7h-2v-5h2z"/></g><g><path d="m44 58h-4c-.55 0-1 .45-1 1v7c0 .55.45 1 1 1h4c.55 0 1-.45 1-1v-7c0-.55-.45-1-1-1zm-1 7h-2v-5h2z"/></g><g><path d="m53 58h-4c-.55 0-1 .45-1 1v7c0 .55.45 1 1 1h4c.55 0 1-.45 1-1v-7c0-.55-.45-1-1-1zm-1 7h-2v-5h2z"/></g><g><path d="m62 32h-4c-.55 0-1 .45-1 1v7c0 .55.45 1 1 1h4c.55 0 1-.45 1-1v-7c0-.55-.45-1-1-1zm-1 7h-2v-5h2z"/></g><g><path d="m44 19h-4c-.55 0-1 .45-1 1v7c0 .55.45 1 1 1h4c.55 0 1-.45 1-1v-7c0-.55-.45-1-1-1zm-1 7h-2v-5h2z"/></g><g><path d="m53 19h-4c-.55 0-1 .45-1 1v7c0 .55.45 1 1 1h4c.55 0 1-.45 1-1v-7c0-.55-.45-1-1-1zm-1 7h-2v-5h2z"/></g><g><path d="m62 19h-4c-.55 0-1 .45-1 1v7c0 .55.45 1 1 1h4c.55 0 1-.45 1-1v-7c0-.55-.45-1-1-1zm-1 7h-2v-5h2z"/></g><path d="m37 10h28v2h-28z" fill="#f9a01e"/><path d="m34 14v77h5v-17c0-.55.45-1 1-1h13c.55 0 1 .45 1 1v17h6v-45c0-.55.45-1 1-1h7v-31zm11 52c0 .55-.45 1-1 1h-4c-.55 0-1-.45-1-1v-7c0-.55.45-1 1-1h4c.55 0 1 .45 1 1zm0-13c0 .55-.45 1-1 1h-4c-.55 0-1-.45-1-1v-7c0-.55.45-1 1-1h4c.55 0 1 .45 1 1zm0-13c0 .55-.45 1-1 1h-4c-.55 0-1-.45-1-1v-7c0-.55.45-1 1-1h4c.55 0 1 .45 1 1zm0-13c0 .55-.45 1-1 1h-4c-.55 0-1-.45-1-1v-7c0-.55.45-1 1-1h4c.55 0 1 .45 1 1zm9 39c0 .55-.45 1-1 1h-4c-.55 0-1-.45-1-1v-7c0-.55.45-1 1-1h4c.55 0 1 .45 1 1zm0-13c0 .55-.45 1-1 1h-4c-.55 0-1-.45-1-1v-7c0-.55.45-1 1-1h4c.55 0 1 .45 1 1zm0-13c0 .55-.45 1-1 1h-4c-.55 0-1-.45-1-1v-7c0-.55.45-1 1-1h4c.55 0 1 .45 1 1zm0-13c0 .55-.45 1-1 1h-4c-.55 0-1-.45-1-1v-7c0-.55.45-1 1-1h4c.55 0 1 .45 1 1zm9 13c0 .55-.45 1-1 1h-4c-.55 0-1-.45-1-1v-7c0-.55.45-1 1-1h4c.55 0 1 .45 1 1zm0-13c0 .55-.45 1-1 1h-4c-.55 0-1-.45-1-1v-7c0-.55.45-1 1-1h4c.55 0 1 .45 1 1z" fill="#fbb316"/><g><path d="m85 66.25v-19.25h-23v44h22.5v-4.29c-5.19-.5-9.26-4.89-9.26-10.21 0-5.49 4.33-9.99 9.76-10.25zm-13 19.75c0 .55-.45 1-1 1h-4c-.55 0-1-.45-1-1v-7c0-.55.45-1 1-1h4c.55 0 1 .45 1 1zm0-13c0 .55-.45 1-1 1h-4c-.55 0-1-.45-1-1v-7c0-.55.45-1 1-1h4c.55 0 1 .45 1 1zm0-13c0 .55-.45 1-1 1h-4c-.55 0-1-.45-1-1v-7c0-.55.45-1 1-1h4c.55 0 1 .45 1 1zm3 0v-7c0-.55.45-1 1-1h4c.55 0 1 .45 1 1v7c0 .55-.45 1-1 1h-4c-.55 0-1-.45-1-1z" fill="#f37123"/></g><path d="m95.76 76.5c0-5.15-3.81-9.42-8.76-10.15-.49-.07-.99-.11-1.5-.11-.17 0-.33 0-.5.01-5.43.26-9.76 4.76-9.76 10.25 0 5.32 4.07 9.71 9.26 10.21v4.29h-15.5-7v-44h23v15.96c0 .552.447 1 1 1s1-.448 1-1v-16.96c0-.552-.447-1-1-1h-16v-32c0-.55-.45-1-1-1h-2v-3c0-.55-.45-1-1-1h-30c-.55 0-1 .45-1 1v3h-2c-.55 0-1 .45-1 1v20h-22c-.55 0-1 .45-1 1v57h-3c-.55 0-1 .45-1 1v4c0 .55.45 1 1 1h84c.55 0 1-.45 1-1v-4c0-.55-.45-1-1-1h-3.5v-4.29c5.19-.5 9.26-4.89 9.26-10.21zm-58.76-66.5h28v2h-28zm-3 4h2 30 2v31h-7c-.553 0-1 .448-1 1v45h-6v-17c0-.55-.45-1-1-1h-13c-.55 0-1 .45-1 1v17h-5zm18 77h-11v-16h11zm-41-56h21v56h-21zm78 58v2h-82v-2h3 23 7 13 8 8 15.5 1.5.5zm-3.5-8.24c-4.55 0-8.26-3.71-8.26-8.26s3.71-8.26 8.26-8.26 8.26 3.71 8.26 8.26-3.71 8.26-8.26 8.26z"/><path d="m75.24 76.5c0 5.32 4.07 9.71 9.26 10.21v4.29h-12.5v-44h13v19.25c-5.43.26-9.76 4.76-9.76 10.25z" fill="#221f1f" opacity=".1"/><path d="m93.76 76.5c0 4.55-3.71 8.26-8.26 8.26-3.49 0-6.48-2.18-7.69-5.24-.37-.93-.57-1.95-.57-3.02 0-4.55 3.71-8.26 8.26-8.26.87 0 1.71.14 2.5.39 3.33 1.06 5.76 4.19 5.76 7.87z" fill="#76c043"/><g fill="#221f1f"><path d="m32 91c-.01-7.04 0-48.96 0-56h-3v5 7 6 7 6 7 6 7 5z" opacity=".1"/><path d="m93.76 76.5c0 4.55-3.71 8.26-8.26 8.26-3.49 0-6.48-2.18-7.69-5.24.36.05.72.07 1.09.07 5.11 0 9.26-4.14 9.26-9.26 0-.58-.06-1.15-.16-1.7 3.33 1.06 5.76 4.19 5.76 7.87z" opacity=".1"/></g></svg>