<svg xmlns="http://www.w3.org/2000/svg" version="1.1" xmlns:xlink="http://www.w3.org/1999/xlink" width="512" height="512" x="0" y="0" viewBox="0 0 512 512" style="enable-background:new 0 0 512 512" xml:space="preserve" class=""><g><path d="M511.03 310.13c-1.73 5.81-5.64 10.97-11.31 14.06L312.06 426.3c-8.84 4.82-17.92 7.68-27.13 8.53-9.24.85-18.71-.26-28.32-3.34l-40.54-13.07c-11.85-3.8-23.58-5.16-35.18-4.08-10.6.99-20.95 4.03-31.01 9.07l-59.7-103.66 71.06-38.66c12.61-6.86 25.57-10.94 38.75-12.16 13.21-1.25 26.7.34 40.39 4.76l110.98 35.72c4.37 1.42 8.05 4.03 10.83 7.4 5.02 6.04 6.8 14.14 4.56 21.71-.14.37-.28.77-.37 1.16-4.14 11.79-16.95 18.34-28.94 14.83-.4-.17-.79-.28-1.22-.4l-93.52-30.1c-4.56-1.47-9.44 1.05-10.89 5.58-1.47 4.56 1.05 9.44 5.58 10.89l94.17 30.36c10.71 3.43 21.85 2.18 31.18-2.58 9.5-4.88 17.15-13.61 20.3-23.87 1.22-3.74 1.84-7.57 1.96-11.51l92.13-50.14c5.7-3.09 12.13-3.57 17.97-1.84 5.78 1.7 10.94 5.61 14.03 11.28v.03c3.12 5.65 3.6 12.11 1.9 17.92zm-121.38-39.77-38.24 20.81 5.3 1.7c7.4 2.38 13.92 6.83 18.88 12.84 2.38 2.86 4.34 6.01 5.84 9.33l53.32-29c-.4-.94-.85-1.87-1.33-2.78-8.51-15.56-28.18-21.37-43.77-12.9zM57.6 297.97c-2.32-4.02-7.48-5.41-11.51-3.12L4.22 319c-4.02 2.3-5.41 7.48-3.09 11.48l94.2 163.56c2.32 4.02 7.48 5.41 11.51 3.09l41.87-24.12c4.03-2.3 5.41-7.48 3.09-11.48zm177.9-113.33c14.2 6.77 33.96 10.94 55.93 10.94 9.27 0 18.11-.74 26.33-2.1-4.85-10.49-7.57-22.2-7.57-34.53 0-2.21.09-4.42.26-6.58-6.12.65-12.5.99-19.02.99-24.46 0-46.74-4.82-63.01-12.59-4.79-2.3-9.1-4.85-12.84-7.65v30.56c-.01 7.64 7.62 15.07 19.92 20.96zm0-58.76c14.2 6.77 33.96 10.97 55.93 10.97 7.74 0 15.17-.51 22.2-1.47 7.77-25.97 27.95-46.57 53.69-54.88v-6.63c-3.74 2.81-8.05 5.39-12.84 7.65-16.27 7.77-38.55 12.59-63.04 12.59-24.46 0-46.74-4.82-63.01-12.59-4.79-2.27-9.1-4.85-12.84-7.65v31.07c-.02 7.62 7.61 15.07 19.91 20.94zm0-59.25c14.2 6.75 33.96 10.94 55.93 10.94 22 0 41.75-4.2 55.96-10.94 12.3-5.9 19.93-13.35 19.93-20.98s-7.63-15.08-19.93-20.95c-14.2-6.77-33.96-10.97-55.96-10.97-21.97 0-41.73 4.2-55.93 10.97-12.3 5.87-19.93 13.32-19.93 20.95s7.63 15.09 19.93 20.98zm157.15 26.4c36.43 0 65.93 29.54 65.93 65.93 0 36.43-29.51 65.96-65.93 65.96s-65.93-29.54-65.93-65.96c0-36.4 29.51-65.93 65.93-65.93zm-35.32 64.09 24.77 24.8c3.23 3.2 8.45 3.2 11.68 0l34.19-34.21c3.23-3.2 3.23-8.45 0-11.68-3.23-3.2-8.45-3.2-11.68 0l-28.35 28.37L369 145.44c-3.23-3.2-8.45-3.2-11.68 0-3.22 3.23-3.22 8.47.01 11.68z" fill="#7a7979" opacity="1" data-original="#000000" class=""></path></g></svg>