<svg xmlns="http://www.w3.org/2000/svg" version="1.1" xmlns:xlink="http://www.w3.org/1999/xlink" width="512" height="512" x="0" y="0" viewBox="0 0 32 32" style="enable-background:new 0 0 512 512" xml:space="preserve" class=""><g><path fill="#b5c9d1" d="M23.949 2.027C21.092 2.306 19 4.875 19 7.745V18a1 1 0 0 0 1 1h6a4 4 0 0 0 4-4V7.5a5.506 5.506 0 0 0-6.051-5.473z" opacity="1" data-original="#b5c9d1" class=""></path><path fill="#bfc5c8" d="M25 2H8C4.691 2 2 4.691 2 8v19c0 1.654 1.346 3 3 3h13c1.654 0 3-1.346 3-3V8.414c-.034-.444-.214-3.339 1.893-5.235A5.59 5.59 0 0 1 25 2z" opacity="1" data-original="#dfeef6" class=""></path><path fill="#5e6f76" d="M24.5 2H8C4.691 2 2 4.691 2 8v19c0 1.654 1.346 3 3 3h13c1.654 0 3-1.346 3-3v-8h6c1.654 0 3-1.346 3-3V7.5C30 4.467 27.532 2 24.5 2zM19 7.5V27c0 .551-.448 1-1 1H5c-.552 0-1-.449-1-1V8c0-2.206 1.794-4 4-4h12.261A5.477 5.477 0 0 0 19 7.5zm9 8.5c0 .551-.448 1-1 1h-6V7.5C21 5.57 22.57 4 24.5 4S28 5.57 28 7.5zM9 22a1 1 0 0 1-1 1H7a1 1 0 1 1 0-2h1a1 1 0 0 1 1 1zm1-12a1 1 0 0 1 1-1h5a1 1 0 1 1 0 2h-5a1 1 0 0 1-1-1zm-1 8a1 1 0 0 1-1 1H7a1 1 0 1 1 0-2h1a1 1 0 0 1 1 1zm0-4a1 1 0 0 1-1 1H7a1 1 0 1 1 0-2h1a1 1 0 0 1 1 1zm1 8a1 1 0 0 1 1-1h5a1 1 0 1 1 0 2h-5a1 1 0 0 1-1-1zm0-8a1 1 0 0 1 1-1h5a1 1 0 1 1 0 2h-5a1 1 0 0 1-1-1zM8 9a1 1 0 1 1 0 2H7a1 1 0 1 1 0-2zm2 9a1 1 0 0 1 1-1h5a1 1 0 1 1 0 2h-5a1 1 0 0 1-1-1z" opacity="1" data-original="#181033" class=""></path></g></svg>