<svg width="23" height="23" viewBox="0 0 23 23" fill="none" xmlns="http://www.w3.org/2000/svg">
<path d="M2.95088 12.1761C2.17494 10.8688 1.90297 9.3232 2.18604 7.82957C2.46912 6.33594 3.28776 4.99704 4.48822 4.06432C5.68869 3.13161 7.18838 2.66927 8.70563 2.76412C10.2229 2.85897 11.6533 3.50449 12.7283 4.57945C13.8032 5.6544 14.4488 7.08483 14.5436 8.60209C14.6385 10.1193 14.1761 11.619 13.2434 12.8195C12.3107 14.02 10.9718 14.8386 9.47816 15.1217C7.98453 15.4048 6.43893 15.1328 5.13165 14.3568L2.97684 14.9713C2.88806 14.9962 2.79423 14.9971 2.70501 14.9738C2.61578 14.9504 2.53437 14.9038 2.46916 14.8386C2.40395 14.7734 2.35728 14.6919 2.33396 14.6027C2.31063 14.5135 2.3115 14.4197 2.33646 14.3309L2.95088 12.1761Z" stroke="white" stroke-width="1.38462" stroke-linecap="round" stroke-linejoin="round"/>
<path d="M7.97021 15.222C8.27521 16.0916 8.76956 16.8826 9.41754 17.5378C10.0655 18.193 10.8509 18.6962 11.7171 19.0108C12.5832 19.3255 13.5084 19.4438 14.4259 19.3573C15.3433 19.2708 16.2301 18.9815 17.0221 18.5105V18.5105L19.1769 19.1249C19.2657 19.1499 19.3596 19.1507 19.4488 19.1274C19.538 19.1041 19.6194 19.0574 19.6846 18.9922C19.7498 18.927 19.7965 18.8456 19.8198 18.7564C19.8432 18.6671 19.8423 18.5733 19.8173 18.4845L19.2029 16.3297C19.7514 15.409 20.0528 14.3621 20.0779 13.2906C20.103 12.2192 19.8508 11.1594 19.3459 10.214C18.841 9.26861 18.1005 8.46967 17.196 7.8946C16.2916 7.31953 15.254 6.98783 14.1837 6.93164" stroke="white" stroke-width="1.38462" stroke-linecap="round" stroke-linejoin="round"/>
</svg>
