<svg xmlns="http://www.w3.org/2000/svg" version="1.1" xmlns:xlink="http://www.w3.org/1999/xlink" width="512" height="512" x="0" y="0" viewBox="0 0 512 512" style="enable-background:new 0 0 512 512" xml:space="preserve" class=""><g><path d="M437.02 74.98C388.668 26.628 324.38 0 256 0S123.332 26.628 74.98 74.98 0 187.62 0 256s26.629 132.667 74.98 181.02S187.62 512 256 512s132.668-26.628 181.02-74.98S512 324.38 512 256s-26.629-132.667-74.98-181.02zM256 240c39.701 0 72 32.299 72 72 0 32.877-22.157 60.659-52.318 69.243-2.167.617-3.682 2.566-3.682 4.819v13.486c0 8.616-6.621 16.029-15.227 16.434C247.584 416.414 240 409.093 240 400v-13.941c0-2.247-1.506-4.197-3.667-4.812-30.032-8.54-52.132-36.113-52.332-68.8-.053-8.725 6.807-16.19 15.529-16.44 9.051-.26 16.47 7 16.47 15.993 0 23.002 19.517 41.532 42.859 39.9 19.704-1.377 35.665-17.339 37.041-37.043C297.53 291.514 279.001 272 256 272c-39.701 0-72-32.299-72-72 0-32.877 22.157-60.659 52.318-69.243 2.167-.617 3.682-2.566 3.682-4.819v-13.486c0-8.616 6.621-16.029 15.227-16.434C264.416 95.586 272 102.907 272 112v13.941c0 2.247 1.506 4.197 3.667 4.812 30.032 8.54 52.132 36.113 52.332 68.8.053 8.725-6.807 16.19-15.529 16.44-9.051.26-16.47-7-16.47-15.993 0-23.002-19.517-41.532-42.859-39.9-19.704 1.377-35.665 17.339-37.041 37.043C214.47 220.486 232.999 240 256 240z" fill="#bfc5c8" opacity="1" data-original="#000000" class=""></path></g></svg>