<svg id="Filloutline_expand" enable-background="new 0 0 504.072 504" height="512" viewBox="0 0 504.072 504" width="512" xmlns="http://www.w3.org/2000/svg"><g><g><path d="m133.769 392c12.399-83.402-50.718-58.301-90.31-16.57-11.15 32.05-19.5 55.61-19.5 55.61-3.02 8.08-9.69 16.64-19.96 20.95 8.8 3.07 20.47.77 26.16-3.51-1.02 7.77-3.99 14.21-8.57 19.56 10.75-1.66 20.04-5.75 28.06-11.99-.38 7.36-2.22 13.77-5.75 19.1 10.18-.95 19.14-5.76 27.39-12.86-.41 6.65-1.38 12.56-3.42 17.05 10.43-.31 23.63-6.61 31.68-14.09 37.161-5.299 45.682-32.349 34.22-73.25z" fill="#e0ac69"/><path d="m228.069 292.901c-1.697-19.884-17.081-23.066-35.29-20.36-55.249-33.843-92.277-24.804-117.91 11.05-10.19 30.51-21.84 64.3-31.41 91.84 9.15-2.48 17.13-8.38 22.34-16.89-1.59 7.73-.87 15.47 1.93 23.22 8.67-2.97 14.78-8.82 18.72-17.12.16 7.76 2.06 14.69 6.05 20.65 7.25-3.97 12.34-10.18 15.86-17.98-.21 6.92 1.75 13.09 5.94 18.48 7.24-4.04 12.37-9.48 15.34-16.36-.57 8.59.69 15.88 4.13 22.57l94.3-71.1c13.244-8.689 12.553-18.056 0-28z" fill="#f1c27d"/><path d="m136.499 196.68c-24.46 11.41-43.85 32.58-52.57 59.43-2.8 8.64-5.86 17.9-9.06 27.48 8.67-1.73 15.97-8.32 21.36-15.93-.89 6.9.7 12.85 5.1 17.75 7.03-2.33 12.2-6.51 15.66-12.41 1.03 6.71 3.81 12.31 9.42 16.1 7.68-3.1 12.55-8.6 15.08-16.1 1.36 6.68 5.44 11.99 11.66 16.2 6.08-3.33 10.09-8.81 12.25-16.2 1.24 7.33 5.84 13.23 13.11 17.98 7.28-4.75 13.03-11.11 14.27-18.44 3.722-47.853-17.941-70.225-56.28-75.86z" fill="#ffdbac"/><path d="m400.129 380.88c7.724-7.168 13.152-5.498 16.66 3.56l-15.2 71.22c-14.761-2.81-19.627-11.667-11.3-28.71z" fill="#655f68"/><path d="m412.809 500h-67.84v-25.01c17.069-16.121 42.946-16.936 59.58-9.77l.02-.01c3.19 10.81 5.96 22.39 8.24 34.79z" fill="#f7b6ad"/><path d="m159.169 474.99v25.01h-67.84c2.28-12.39 5.05-23.96 8.22-34.75.01-.01.03-.02.04-.03 19.999-10.631 46.147-9.211 59.58 9.77z" fill="#f7b6ad"/><g fill="#e15c63"><path d="m401.589 455.66c-3.41-10.3-7.21-19.86-11.3-28.71-18.46-39.91-43.06-65.71-66.43-82.26-10.685 16.656-11.294 32.476 0 47.31l21.11 18.52c-10.238 22.831-11.714 44.514 0 64.47 20.19 3.12 45.55-.88 59.58-9.77l.02-.01c-.96-3.259-1.95-6.439-2.98-9.55z"/><path d="m133.769 392c-13.4 19.26-25.39 43.29-34.22 73.25.01-.01.03-.02.04-.03 14.03 8.89 39.39 12.89 59.58 9.77l12.508-56.05 8.602-26.94c17.465-14.484 15.869-30.371 0-47.31-15.69 11.11-31.93 26.391-46.51 47.31z"/><path d="m292.069 326.8c10.793 23.686 13.227 45.859 0 65.2-23.042 22.007-50.038 20.008-80 0-15.509-19.341-12.655-41.514 0-65.2 5.77-2.48 11.15-4.41 16-5.9 0 0 4.85 20.02 24 20.02s24-20.02 24-20.02c4.85 1.491 10.23 3.42 16 5.9z"/></g><path d="m330.309 25.87c-14.46-16.94-54.24-21.87-78.24-21.87s-63.78 4.93-78.24 21.87c-14.46 16.93-30.4 66.04-30.4 66.04h217.28s-15.94-49.11-30.4-66.04z" fill="#f1c27d"/><path d="m360.709 91.91c-30.25-7.34-67.87-11.69-108.64-11.69s-78.39 4.35-108.64 11.69c-43.89 10.64-72.28 27.58-72.28 46.65 0 18.79 27.55 35.51 70.34 46.17l221.19.03.05-.04c42.74-10.67 70.26-27.38 70.26-46.16 0-19.07-28.39-36.01-72.28-46.65z" fill="#e0ac69"/><path d="m362.679 184.76c5.52 7.27 7.1 18.28 3.29 28.73-4.68 12.81-15.96 20.69-26.75 19.39h-.01c-15.262-17.693-15.105-37.922 11.1-55.98 1.21.23 2.35.54 3.53 1.02 3.56 1.43 6.54 3.81 8.84 6.84z" fill="#dfa3a5"/><path d="m164.929 232.88h-.01c-4.56.55-9.2-.54-13.4-2.94v-.01c-5.16-2.95-9.65-7.9-12.46-14.25-.32-.71-.62-1.44-.89-2.19-2.07-5.67-2.55-11.5-1.67-16.81.74-4.5 2.45-8.62 4.99-11.95 2.29-3.02 5.27-5.39 8.81-6.81 1.18-.48 2.32-.79 3.53-1.02 18.822 21.333 20.176 41.056 11.1 55.98z" fill="#dfa3a5"/><path d="m331.479 132.1c-20.47-5.83-48.15-11.36-79.41-11.36s-58.94 5.53-79.41 11.36c-11.349 13.096-19.197 27.13-18.83 44.8 2.09 21.42 5.97 41.13 11.1 55.98 2.17 6.29 4.57 11.71 7.15 16.02 4.44 7.39 11.61 15.88 20.7 23.64 9.85 8.41 21.95 15.96 35.29 20.36v28s4.85 20.02 24 20.02 24-20.02 24-20.02v-28c25.65-8.45 46.75-28.6 55.99-44 2.58-4.31 4.98-9.73 7.15-16.02 5.13-14.85 9.01-34.56 11.1-55.98-.732-11.351-4.38-26.292-18.83-44.8z" fill="#f7b6ad"/><path d="m493.329 230.01c4.6.98 7.53 5.51 6.55 10.11l-15.68 73.44c-5.98 28.03-30.76 47.22-58.31 47.2l-5.23 24.5-3.87-.82-16.66-3.56-3.87-.82 5.23-24.51c-25.16-11.23-39.94-38.86-33.95-66.89l15.67-73.45c.99-4.6 5.51-7.53 10.12-6.55 4.6.98 7.53 5.51 6.55 10.11l-15.65 73.29c-.13.6-.19 1.19-.19 1.78 0 3.94 2.75 7.48 6.75 8.33 4.6.99 9.13-1.95 10.11-6.55l15.65-73.29c.98-4.6 5.51-7.54 10.11-6.55 4.6.98 7.54 5.51 6.55 10.11l-15.64 73.29c-.98 4.6 1.95 9.13 6.55 10.11s9.13-1.95 10.11-6.56l15.65-73.28c.98-4.61 5.51-7.54 10.11-6.56 4.61.98 7.54 5.51 6.56 10.11l-15.65 73.29c-.13.6-.19 1.2-.19 1.79 0 3.94 2.74 7.47 6.75 8.33 4.6.98 9.13-1.96 10.11-6.56l15.64-73.29c.99-4.6 5.51-7.53 10.12-6.55z" fill="#cdc7b9"/><path d="m326.449 392h-2.59-31.79-80-31.79-2.59c-10.23 0-18.52 8.29-18.52 18.52v64.47 25.01h185.8v-25.01-64.47c0-10.23-8.29-18.52-18.52-18.52z" fill="#1498b7"/><path d="m292.069 392v-65.2c9.78 4.21 20.64 9.99 31.79 17.89v47.31 32.23c0 8.78-7.12 15.89-15.89 15.89-4.39 0-8.36-1.78-11.24-4.65-2.88-2.88-4.66-6.85-4.66-11.24z" fill="#1ea6bc"/><path d="m180.279 392v-47.31c1.21-.86 2.42-1.7 3.63-2.5 8.52-5.73 16.83-10.25 24.55-13.78 1.22-.56 2.42-1.1 3.61-1.61v65.2 32.23c0 4.39-1.78 8.36-4.66 11.24-2.88 2.87-6.85 4.65-11.24 4.65-8.77 0-15.89-7.11-15.89-15.89z" fill="#1ea6bc"/><path d="m280.639 200.64 11.43 32.26-18.71-9.43-6.78 16.16-14.51-15.25-14.51 15.25-6.78-16.16-18.71 9.43 11.43-32.26c4.29-12.1 15.73-20.19 28.57-20.19 6.42 0 12.49 2.02 17.49 5.56 5 3.53 8.93 8.58 11.08 14.63z" fill="#604533"/><path d="m360.589 142.1c-.19 13.45-3.61 25.05-10.28 34.8-10.56-11.35-16.84-26.29-18.83-44.8 12.83 3.65 22.83 7.41 29.11 10z" fill="#604533"/><path d="m143.549 142.1c6.28-2.59 16.28-6.35 29.11-10-1.99 18.51-8.27 33.45-18.83 44.8-6.67-9.75-10.09-21.35-10.28-34.8z" fill="#604533"/><path d="m159.169 474.99v25.01h-40.25c8.31 0 14.08-10.47 18.07-24.24 7.56.54 15.18.31 22.18-.77z" fill="#dfa3a5"/><path d="m159.169 417.377v57.614c-7 1.08-14.62 1.31-22.18.77 5.752-19.874 7.809-46.631 8.478-58.77.2-3.631 3.209-6.47 6.845-6.47 3.788-.001 6.857 3.069 6.857 6.856z" fill="#d14b62"/><path d="m344.969 474.99v25.01h40.25c-8.31 0-14.08-10.47-18.07-24.24-7.56.54-15.18.31-22.18-.77z" fill="#dfa3a5"/><path d="m344.969 417.377v57.614c7 1.08 14.62 1.31 22.18.77-5.752-19.874-7.809-46.631-8.478-58.77-.2-3.631-3.209-6.47-6.845-6.47-3.787-.001-6.857 3.069-6.857 6.856z" fill="#d14b62"/><path d="m276.069 292.9v18.13c-26.05 7.32-48-5.8-48-5.8v-12.33c7.66 2.52 15.72 4 24 4s16.34-1.479 24-4z" fill="#dfa3a5"/></g><g fill="#3a322b"><circle cx="292.079" cy="176.898" r="8"/><path d="m307.49 141.787c-9.982-7.033-23.205-4.802-23.762-4.705-2.172.383-3.618 2.45-3.241 4.622.376 2.172 2.443 3.632 4.619 3.258.104-.017 10.551-1.727 17.776 3.364.7.493 1.504.73 2.3.73 1.257 0 2.495-.591 3.273-1.697 1.273-1.804.841-4.3-.965-5.572z"/><circle cx="212.079" cy="176.898" r="8"/><path d="m219.05 144.962c2.181.375 4.242-1.074 4.625-3.247.384-2.176-1.069-4.25-3.245-4.634-.557-.098-13.779-2.329-23.762 4.705-1.806 1.272-2.238 3.768-.966 5.574.778 1.106 2.016 1.697 3.273 1.697.796 0 1.6-.237 2.3-.73 7.201-5.073 17.595-3.395 17.775-3.365z"/><path d="m284.409 199.306c-4.843-13.668-17.839-22.852-32.34-22.852s-27.497 9.184-32.34 22.852l-11.431 32.26c-.546 1.54-.1 3.257 1.126 4.337 1.227 1.08 2.986 1.306 4.445.57l14.883-7.502 5.119 12.207c.522 1.246 1.638 2.143 2.966 2.387 1.33.245 2.689-.199 3.621-1.177l11.61-12.205 11.61 12.205c.763.801 1.813 1.243 2.898 1.243.24 0 .482-.021.723-.066 1.328-.244 2.443-1.142 2.966-2.387l5.119-12.207 14.883 7.502c1.462.736 3.219.51 4.445-.57s1.672-2.797 1.126-4.337zm-9.252 20.59c-.99-.5-2.144-.564-3.186-.181-1.04.384-1.875 1.183-2.304 2.206l-4.411 10.517-10.289-10.816c-.756-.794-1.803-1.243-2.898-1.243s-2.143.449-2.898 1.243l-10.289 10.816-4.411-10.517c-.429-1.023-1.264-1.822-2.304-2.206-1.042-.384-2.195-.319-3.186.181l-9.813 4.947 8.103-22.866c3.714-10.481 13.68-17.523 24.799-17.523s21.085 7.042 24.799 17.523l8.103 22.866z"/><path d="m502.054 231.531c-1.819-2.807-4.623-4.737-7.894-5.435-3.271-.696-6.618-.081-9.425 1.739-2.806 1.819-4.736 4.622-5.435 7.893l-15.646 73.289c-.52 2.439-2.938 4-5.365 3.477-1.181-.252-2.193-.949-2.85-1.962s-.88-2.222-.628-3.403l15.646-73.289c.698-3.271.081-6.618-1.738-9.424s-4.623-4.737-7.894-5.435c-3.267-.7-6.617-.082-9.424 1.738-2.807 1.819-4.737 4.622-5.436 7.893l-15.643 73.288c-.252 1.181-.949 2.193-1.962 2.85-1.014.658-2.223.879-3.403.627-1.181-.252-2.193-.949-2.851-1.962-.656-1.013-.879-2.222-.627-3.403l15.646-73.289c1.441-6.752-2.879-13.418-9.631-14.859-6.756-1.441-13.418 2.879-14.859 9.631l-15.646 73.289c-.252 1.181-.949 2.193-1.962 2.85-1.013.656-2.224.878-3.402.628-2.438-.521-3.998-2.928-3.478-5.366l15.646-73.289c1.441-6.751-2.88-13.417-9.632-14.859-3.269-.698-6.617-.081-9.424 1.738s-4.737 4.623-5.436 7.894l-15.678 73.442c-6.006 28.133 7.92 57.027 33.299 69.978l-4.573 21.422c-.222 1.037-.021 2.12.556 3.011.568.876 1.457 1.491 2.475 1.721l-6.609 30.956c-33.505-64.268-82.638-88.344-108.705-96.933v-22.229c26.145-9.548 46.753-30.34 55.424-44.792 2.312-3.854 4.488-8.553 6.499-13.96 11.65-.236 22.968-9.073 27.739-22.138 3.504-9.598 2.884-19.669-.918-27.591 43.407-11.662 68.176-29.286 68.176-48.706 0-17.461-19.803-33.462-55.761-45.057-5.525-1.782-11.343-3.434-17.412-4.955-3.292-9.795-17.235-49.783-30.463-65.279-14.664-17.175-52.95-23.27-81.281-23.27s-66.617 6.095-81.279 23.271c-13.228 15.496-27.171 55.483-30.463 65.279-6.069 1.521-11.887 3.173-17.412 4.955-35.958 11.595-55.761 27.596-55.761 45.057 0 19.421 24.768 37.043 68.176 48.706-1.001 2.087-1.78 4.322-2.322 6.66-25.042 12.283-44.26 34.391-52.886 60.952-21.855 67.303-59.558 173.759-59.914 174.765-3.103 8.319-9.74 15.294-17.756 18.657-1.526.641-2.501 2.156-2.45 3.811.051 1.655 1.116 3.108 2.68 3.654 6.983 2.438 15.088 1.967 21.632-.069-1.321 3.561-3.231 6.786-5.762 9.743-1.088 1.271-1.27 3.085-.456 4.546s2.453 2.265 4.104 2.007c7.969-1.228 15.386-3.777 22.147-7.604-.861 3.191-2.125 6.053-3.78 8.559-.85 1.285-.886 2.942-.093 4.263.791 1.32 2.272 2.064 3.805 1.925 7.545-.71 14.783-3.344 21.936-8.005-.507 2.582-1.166 4.757-1.984 6.561-.569 1.257-.451 2.72.314 3.869.743 1.115 1.994 1.782 3.329 1.782.04 0 .08 0 .12-.002 7.59-.228 16.696-3.304 24.655-8.038-1.958 7.632-3.721 15.614-5.257 23.975-.214 1.167.102 2.371.861 3.283.76.913 1.886 1.44 3.073 1.44h321.486c1.188 0 2.313-.527 3.073-1.44.76-.912 1.075-2.115.861-3.283-2.925-15.918-6.663-30.477-11.03-43.805l14.153-66.291c.26.052.524.083.786.083.767 0 1.522-.22 2.176-.644.89-.577 1.515-1.484 1.736-2.521l4.572-21.422c28.453-1.46 52.967-22.148 58.973-50.28l15.679-73.442c.699-3.272.082-6.619-1.737-9.426zm-102.234 231.814c-12.65 6.761-33.334 10.077-50.85 8.139v-60.963c0-11.944-9.347-21.74-21.109-22.472v-35.274c26.604 20.739 54.855 54.822 71.959 110.57zm-266.189-93.655c.129-1.943-1.16-3.696-3.054-4.153-1.894-.458-3.84.517-4.61 2.305-2.182 5.058-5.635 9.184-10.507 12.533-2.229-3.879-3.249-8.145-3.104-12.944.058-1.906-1.239-3.588-3.098-4.018-1.858-.429-3.762.514-4.546 2.252-2.747 6.084-6.314 10.705-10.847 14.023-2.175-4.394-3.298-9.38-3.42-15.13-.039-1.854-1.348-3.439-3.162-3.827-1.814-.387-3.656.521-4.451 2.197-2.948 6.216-7.087 10.644-12.587 13.439-1.487-5.776-1.666-11.484-.527-17.019.392-1.903-.641-3.812-2.447-4.526-1.808-.714-3.866-.026-4.881 1.63-3.087 5.038-7.307 9.108-12.254 11.923 8.756-25.235 18.832-54.555 27.825-81.433 5.885-1.706 10.85-5.196 14.843-9.077.975 3.773 2.828 7.189 5.551 10.22 1.062 1.183 2.721 1.626 4.235 1.124 4.998-1.658 9.247-4.192 12.703-7.569 1.948 4.488 4.919 8.095 8.883 10.771 1.103.745 2.504.891 3.733.395 5.541-2.233 9.948-5.642 13.176-10.18 2.312 3.716 5.594 7.024 9.821 9.888 1.243.842 2.852.917 4.165.196 4.12-2.257 7.479-5.396 10.05-9.381 2.551 4.113 6.295 7.792 11.206 11 .664.434 1.426.651 2.188.651s1.523-.217 2.188-.651c4.991-3.261 10.933-8.29 14.094-15.057 8.495 6.593 18.409 12.504 29.278 16.473v22.229c-3.688 1.215-7.844 2.746-12.346 4.651l-2.05-15.535c-.29-2.19-2.291-3.732-4.489-3.442-2.19.289-3.731 2.299-3.442 4.489l2.367 17.933c-5.331 2.568-11.014 5.642-16.907 9.312l-2.949-27.574c-.234-2.197-2.208-3.777-4.403-3.552-2.196.235-3.786 2.207-3.552 4.403l3.387 31.666c-14.772 10.24-30.42 24.286-44.824 43.492-1.181-4.236-1.586-8.849-1.236-14.127zm50.647-22.807c8.374-5.807 16.442-10.325 23.791-13.837v91.183c0 6.56-5.336 11.896-11.896 11.896s-11.896-5.336-11.896-11.896v-77.346zm-8 5.892v35.274c-11.763.731-21.109 10.528-21.109 22.472v60.963c-17.518 1.937-38.199-1.378-50.85-8.139 17.104-55.748 45.355-89.831 71.959-110.57zm-13.109 57.746c0-7.531 5.763-13.737 13.109-14.449v28.157c0 10.971 8.925 19.896 19.896 19.896s19.896-8.925 19.896-19.896v-28.229h72v28.229c0 10.971 8.925 19.896 19.896 19.896s19.896-8.925 19.896-19.896v-28.157c7.347.712 13.109 6.918 13.109 14.449v85.479h-177.802zm132.9-77.475c7.349 3.512 15.417 8.03 23.791 13.837v77.346c0 6.56-5.336 11.896-11.896 11.896s-11.896-5.336-11.896-11.896v-91.183zm-8-3.564v58.518h-72v-58.519c3.396-1.404 6.568-2.578 9.463-3.556 3.348 8.167 11.596 19 26.537 19s23.189-10.833 26.537-19c2.895.978 6.067 2.153 9.463 3.557zm-16.004-9.117c-.767 2.65-5.484 16.56-19.996 16.56s-19.229-13.91-19.996-16.56v-22.123c6.422 1.683 13.112 2.656 19.996 2.656s13.574-.973 19.996-2.656zm56.565-73.526c-10.685 17.807-40.918 46.058-76.561 46.058s-65.876-28.251-76.561-46.058c-7.944-13.24-14.459-38.798-17.521-68.6 9.854-11.186 16.006-25.616 18.31-42.96 19.961-5.491 46.323-10.542 75.772-10.542s55.811 5.052 75.772 10.542c2.304 17.344 8.456 31.774 18.31 42.96-3.062 29.803-9.577 55.36-17.521 68.6zm-186.702-34.725c-4.435-12.144-.63-25.096 8.449-29.811 1.969 17.629 5.067 33.493 8.989 46.399-7.356-1.453-14.22-7.774-17.438-16.588zm12.434-42.013c-3.995-7.383-6.229-15.877-6.706-25.325 5.037-1.991 11.873-4.487 20.184-7.038-2.165 12.749-6.679 23.598-13.478 32.363zm195.414 0c-6.798-8.766-11.313-19.614-13.479-32.363 8.311 2.55 15.147 5.047 20.184 7.038-.476 9.447-2.71 17.941-6.705 25.325zm12.435 42.013c-3.217 8.813-10.087 15.133-17.437 16.588 3.921-12.906 7.019-28.769 8.989-46.398 9.078 4.714 12.883 17.667 8.448 29.81zm-185.337-183.649c13.791-16.155 53.755-20.465 75.195-20.465s61.404 4.31 75.195 20.465c10.647 12.473 22.45 44.018 27.333 57.922-30.041-6.607-65.454-10.163-102.529-10.163s-72.488 3.556-102.529 10.163c4.885-13.904 16.688-45.448 27.335-57.922zm-101.72 110.097c0-26.241 71.089-54.336 176.915-54.336s176.915 28.096 176.915 54.336c0 15.668-24.225 31.179-64.928 41.683-2.17-2.328-4.742-4.234-7.67-5.578 4.407-7.861 7.054-16.776 7.905-26.618 1.258.565 1.945.897 2 .925.568.279 1.17.411 1.763.411 1.477 0 2.896-.82 3.592-2.234.976-1.981.161-4.378-1.82-5.354-2.076-1.023-51.622-25.061-117.756-25.061s-115.68 24.038-117.756 25.061c-1.981.976-2.796 3.373-1.82 5.354.975 1.982 3.373 2.798 5.354 1.823.056-.027.743-.36 2-.925.85 9.842 3.497 18.757 7.905 26.617-2.929 1.344-5.5 3.249-7.671 5.578-40.704-10.504-64.928-26.013-64.928-41.682zm56.982 64.847c.15 3.674.854 7.429 2.164 11.12-12.379 11.079-22.245 25.129-28.599 40.79-.83 2.047.156 4.38 2.203 5.21.493.2 1.002.294 1.503.294 1.58 0 3.077-.943 3.708-2.497 5.518-13.602 14.257-26.326 24.834-36.282 2.395 3.786 5.397 6.982 8.763 9.447-2.635 7.589-4.842 15.832-6.563 24.557-.427 2.167.983 4.271 3.151 4.698.261.052.521.077.777.077 1.872 0 3.545-1.321 3.921-3.227 1.552-7.875 3.514-15.324 5.836-22.211 2.694 1.005 5.495 1.553 8.316 1.61 2.011 5.407 4.187 10.106 6.499 13.96 4.107 6.845 10.901 15.11 19.683 22.932-1.367 4.249-4.759 8.48-9.81 12.22-5.277-3.975-8.288-8.5-9.179-13.773-.311-1.838-1.85-3.217-3.71-3.327-1.87-.106-3.55 1.082-4.073 2.87-1.634 5.584-4.339 9.697-8.236 12.499-4.358-3.466-6.956-7.468-7.914-12.174-.361-1.772-1.866-3.082-3.671-3.194-1.819-.119-3.461 1-4.039 2.713-1.992 5.901-5.522 10.091-10.76 12.749-3.249-2.832-5.173-6.726-5.999-12.08-.258-1.673-1.541-3.002-3.204-3.319-1.665-.317-3.345.446-4.2 1.908-2.568 4.384-6.14 7.557-10.871 9.641-2.29-3.492-3.099-7.587-2.467-12.438.237-1.822-.798-3.572-2.51-4.241-1.708-.669-3.658-.087-4.721 1.413-2.735 3.86-6.672 8.397-11.612 11.397 2.23-6.721 4.369-13.226 6.375-19.401 7.446-22.93 23.449-42.263 44.405-53.941zm-58.483 271.139c.808-3.417 1.345-7.398 1.624-12.015.097-1.605-.776-3.112-2.217-3.826-1.439-.713-3.169-.496-4.387.553-5.882 5.065-11.69 8.495-17.589 10.366 1.448-4.033 2.306-8.5 2.563-13.36.083-1.563-.754-3.031-2.142-3.756-1.389-.724-3.071-.574-4.307.387-5.096 3.959-10.73 6.955-16.832 8.956 1.896-3.955 3.155-8.25 3.762-12.851.21-1.597-.558-3.165-1.948-3.977-1.39-.811-3.133-.712-4.421.257-2.616 1.966-7.064 3.479-11.786 3.952 5.203-4.453 9.288-10.245 11.753-16.856.173-.488 8.141-22.988 18.832-53.708 5.399-1.771 10.34-4.62 14.567-8.368.347 4.247 1.295 8.528 2.841 12.813.742 2.053 2.995 3.135 5.057 2.427 5.914-2.022 10.897-5.304 14.902-9.801 1.122 4.292 2.874 8.228 5.245 11.773 1.152 1.721 3.426 2.278 5.245 1.285 4.474-2.448 8.362-5.765 11.634-9.913 1.135 3.332 2.834 6.46 5.09 9.364 1.213 1.561 3.384 2 5.109 1.038 3.85-2.15 7.174-4.683 9.954-7.581.603 3.529 1.609 6.852 3.011 10.008-12.886 18.906-24.477 42.324-33.144 71.284-6.182 5.463-14.773 9.819-22.416 11.549zm28.39-3.38c11.374 5.637 27.315 8.877 42.744 8.877 3.508 0 6.985-.181 10.382-.526v16.481h-59.009c1.719-8.705 3.696-16.965 5.883-24.832zm246.927 24.832v-16.481c3.396.345 6.872.526 10.382.526 15.428 0 31.37-3.241 42.744-8.877 2.187 7.867 4.164 16.127 5.883 24.833h-59.009zm45.495-69.447 8.737-40.924 8.843 1.888-11.446 53.614c-1.956-5.052-4.002-9.914-6.134-14.578zm101.503-187.267-15.679 73.442c-5.448 25.52-28.308 44.033-54.364 44.032-.013 0-.023-.004-.038 0-1.887 0-3.518 1.319-3.912 3.165l-4.396 20.592-16.571-3.538 4.396-20.593c.394-1.847-.557-3.717-2.281-4.487-23.805-10.63-37.127-36.876-31.676-62.408l15.678-73.442c.252-1.181.949-2.193 1.963-2.85 1.013-.657 2.219-.879 3.402-.628 2.438.521 3.998 2.928 3.478 5.366l-15.646 73.289c-1.441 6.751 2.879 13.417 9.631 14.859 6.755 1.444 13.418-2.879 14.859-9.631l15.646-73.289c.52-2.438 2.939-3.996 5.365-3.477 1.181.252 2.192.949 2.85 1.962.656 1.013.879 2.222.627 3.403l-15.646 73.289c-.698 3.271-.081 6.618 1.738 9.424s4.623 4.737 7.894 5.435c3.268.699 6.616.082 9.424-1.738 2.807-1.819 4.737-4.622 5.436-7.893l15.646-73.289c.252-1.181.949-2.193 1.962-2.85 1.015-.657 2.224-.877 3.403-.627 1.181.252 2.193.949 2.851 1.963.656 1.013.879 2.222.627 3.403l-15.646 73.289c-.698 3.271-.081 6.618 1.738 9.424s4.623 4.737 7.894 5.435c6.754 1.44 13.418-2.879 14.859-9.631l15.646-73.289c.52-2.438 2.939-3.997 5.365-3.478 1.181.252 2.193.949 2.85 1.962.656 1.014.879 2.222.627 3.404z"/><path d="m154.594 304.31c-2.172-.421-4.269.994-4.69 3.163l-8.069 41.491c-.422 2.168.994 4.269 3.163 4.69.258.05.515.075.768.075 1.877 0 3.551-1.327 3.923-3.237l8.068-41.492c.422-2.168-.995-4.269-3.163-4.69z"/><path d="m123.067 303.013c-2.164-.462-4.286.918-4.746 3.078l-8.768 41.123c-.461 2.161.917 4.286 3.078 4.746.281.06.562.089.838.089 1.848 0 3.508-1.288 3.908-3.167l8.768-41.123c.461-2.161-.917-4.286-3.078-4.746z"/><path d="m92.819 301.33c-2.127-.604-4.338.631-4.939 2.756l-10.584 37.305c-.603 2.125.632 4.337 2.757 4.94.365.104.732.153 1.094.153 1.743 0 3.347-1.149 3.847-2.909l10.582-37.305c.603-2.126-.632-4.337-2.757-4.94z"/><path d="m65.584 397.41c-2.027-.887-4.383.038-5.269 2.061l-15.614 35.689c-.885 2.024.038 4.383 2.062 5.268.522.229 1.066.336 1.602.336 1.541 0 3.01-.896 3.667-2.397l15.614-35.689c.884-2.024-.039-4.383-2.062-5.268z"/><path d="m92.595 399.469c-2.094-.7-4.361.429-5.063 2.525l-13.334 39.886c-.7 2.095.431 4.361 2.525 5.062.421.141.849.208 1.27.208 1.673 0 3.232-1.058 3.793-2.733l13.334-39.887c.7-2.095-.431-4.361-2.525-5.061z"/></g></g></svg>