<svg xmlns="http://www.w3.org/2000/svg" version="1.1" xmlns:xlink="http://www.w3.org/1999/xlink" width="512" height="512" x="0" y="0" viewBox="0 0 600.368 600.368" style="enable-background:new 0 0 512 512" xml:space="preserve" class=""><g><path d="M468.887 270.928c-47.207-47.212-121.19-54.502-176.704-17.413s-77.099 108.228-51.553 169.911 91.107 96.732 156.589 83.711 112.648-70.484 112.652-137.248a138.994 138.994 0 0 0-40.984-98.961zm-14.144 183.779c-40.467 40.464-103.882 46.708-151.463 14.912s-66.076-92.774-44.174-145.643 78.101-82.906 134.227-71.739c56.127 11.167 96.549 60.426 96.546 117.653a119.146 119.146 0 0 1-35.136 84.817z" fill="#6c6b6b" opacity="1" data-original="#000000" class=""></path><path fill-rule="evenodd" d="M369.926 269.929a99.21 99.21 0 0 0-70.672 29.289 9.994 9.994 0 0 0 4.413 16.86 9.994 9.994 0 0 0 9.721-2.726 79.37 79.37 0 0 1 56.538-23.431c5.521 0 9.996-4.475 9.996-9.996s-4.475-9.996-9.996-9.996z" clip-rule="evenodd" fill="#6c6b6b" opacity="1" data-original="#000000" class=""></path><path d="M555.174 498.599a19.932 19.932 0 0 0-19.282-5.088l-19.412-19.472c50.977-71.483 42.805-169.342-19.322-231.38-3.998-3.998-8.257-7.817-12.595-11.416a40.651 40.651 0 0 0 7.187-7.057c13.279-17.612 9.89-42.634-7.597-56.078L274.233 8.171c-14.348-10.846-34.153-10.846-48.501 0l-65.724 50.07V40.019c0-11.041-8.951-19.992-19.992-19.992H80.039c-11.041 0-19.992 8.951-19.992 19.992v94.393l-44.263 33.717c-13.671 10.395-19.176 28.36-13.677 44.63s20.773 27.211 37.948 27.182v249.902c0 11.041 8.951 19.992 19.992 19.992H256.89c62.677 50.744 151.504 53.451 217.155 6.617l19.462 19.522a19.934 19.934 0 0 0 5.128 19.163l32.987 32.987a39.985 39.985 0 0 0 67.441-17.652 39.983 39.983 0 0 0-10.904-38.885zM80.039 40.019h59.977v33.457l-59.977 45.702zM24.131 212.121c-6.654-8.821-4.964-21.355 3.789-28.099L237.838 24.085a19.903 19.903 0 0 1 24.291 0l209.918 159.937c8.725 6.724 10.434 19.207 3.839 28.029a19.805 19.805 0 0 1-8.717 6.507 177.722 177.722 0 0 0-42.064-19.902l-169.074-128.9a9.996 9.996 0 0 0-12.115 0L52.22 215.88c-8.814 6.643-21.331 4.968-28.089-3.759zm35.916 22.372a40.094 40.094 0 0 0 4.268-2.699L249.973 90.269 381.462 190.52c-3.838-.24-7.657-.56-11.535-.56a178.748 178.748 0 0 0-127.23 52.699 182.425 182.425 0 0 0-22.431 27.269H180c-16.562 0-29.988 13.426-29.988 29.988v189.926H60.047zm109.957 65.424c0-5.521 4.475-9.996 9.996-9.996h28.839c-32.885 65.906-22.069 145.225 27.259 199.922h-66.094zm86.836 183.058c-53.951-53.957-62.273-138.511-19.877-201.951s123.702-88.098 194.194-58.893 110.537 104.138 95.645 178.973-80.573 128.729-156.876 128.722a158.841 158.841 0 0 1-113.086-46.851zm240.316 14.145c2.369-2.379 4.488-4.928 6.717-7.417l15.934 15.994-14.154 14.135-15.934-15.994c2.489-2.21 5.048-4.339 7.437-6.718zm76.83 76.83c-7.909 7.555-20.36 7.555-28.269 0l-32.987-32.987 28.269-28.269 32.987 32.987c7.805 7.807 7.805 20.462 0 28.269z" fill="#6c6b6b" opacity="1" data-original="#000000" class=""></path></g></svg>