<svg height="512" viewBox="0 0 58 58" width="512" xmlns="http://www.w3.org/2000/svg"><g id="Page-1" fill="none" fill-rule="evenodd"><g id="007---Land-Sale" fill-rule="nonzero" transform="translate(-1)"><path id="Shape" d="m59 51.13v4.87c0 1.1045695-.8954305 2-2 2h-54c-1.1045695 0-2-.8954305-2-2v-4.87z" fill="#a56a43"/><path id="Shape" d="m14 22h-7.26c-1.00718159-.0092148-1.86406695.731991-2 1.73l-3.74 27.14c-.00494554.0865961-.00494554.1734039 0 .26 0 1.0327725.83722752 1.87 1.87 1.87h54.26c1.0327725 0 1.87-.8372275 1.87-1.87.0049455-.0865961.0049455-.1734039 0-.26l-3.76-27.14c-.1359331-.998009-.9928184-1.7392148-2-1.73z" fill="#4fba6f"/><path id="Rectangle-path" d="m27 24h6v14h-6z" fill="#805333"/><path id="Rectangle-path" d="m27 26h6v12h-6z" fill="#a56a43"/><g fill="#7ed09e"><path id="Shape" d="m34 43.68c-.0843151-.2523526-.26572-.4607006-.5040704-.5789374-.2383505-.1182369-.5139931-.1366133-.7659296-.0510626-1.070471.3895041-2.0143705 1.063718-2.73 1.95-.6954494-.8973506-1.6218374-1.588685-2.68-2-.3394023-.114325-.7140146-.0388967-.9827241.1978719-.2687095.2367685-.3906928.5989065-.32.95s.3233218.6378031.6627241.7521281c1.3366779.4586967 2.2568378 1.6882206 2.32 3.1 0 .5522847.4477153 1 1 1s1-.4477153 1-1c.1025034-1.3744722 1.0155003-2.5550716 2.32-3 .2736383-.0723289.5038097-.2572283.6334279-.5088401s.1465413-.5463665.0465721-.8111599z"/><path id="Shape" d="m53 43.68c-.0843151-.2523526-.26572-.4607006-.5040704-.5789374-.2383505-.1182369-.5139931-.1366133-.7659296-.0510626-.3804983.143048-.7456648.3239562-1.09.54.2808527-1.0497573.6977172-2.0583005 1.24-3 .2380487-.2955284.2883109-.7003343.1297641-1.0451054-.1585468-.3447712-.4985809-.570095-.8778815-.5817287-.3793005-.0116337-.7325045.1924276-.9118826.5268341-.8945913 1.4925005-1.5080597 3.1363246-1.81 4.85-.584313-.5358649-1.2622764-.959592-2-1.25-.5246705-.1767311-1.0932688.1053295-1.2699999.63-.1767312.5246705.1053294 1.0932689.6299999 1.27 1.2723579.475134 2.1460477 1.6544193 2.23 3.01 0 .5522847.4477153 1 1 1s1-.4477153 1-1c.1025034-1.3744722 1.0155003-2.5550716 2.32-3 .2736383-.0723289.5038097-.2572283.6334279-.5088401s.1465413-.5463665.0465721-.8111599z"/><path id="Shape" d="m13.68 43.05c-.3804983.143048-.7456648.3239562-1.09.54.2808527-1.0497573.6977172-2.0583005 1.24-3 .2380487-.2955284.2883109-.7003343.1297641-1.0451054-.1585468-.3447712-.4985809-.570095-.8778815-.5817287-.3793005-.0116337-.7325045.1924276-.9118826.5268341-.8945913 1.4925005-1.5080597 3.1363246-1.81 4.85-.58431302-.5358649-1.26227639-.959592-2-1.25-.34118864-.1214703-.72126358-.0516915-.99705426.1830514-.27579069.2347428-.40539795.5987868-.34.955.06539795.3562131.31586562.6504783.65705426.7719486 1.30449972.4449284 2.21749658 1.6255278 2.32 3 0 .5522847.4477153 1 1 1s1-.4477153 1-1c.1025034-1.3744722 1.0155003-2.5550716 2.32-3 .3394023-.114325.5920313-.4010346.6627241-.7521281s-.0512905-.7132315-.32-.95c-.2687095-.2367686-.6433218-.3121969-.9827241-.1978719z"/><path id="Shape" d="m16 30.68c-.0843151-.2523526-.26572-.4607006-.5040704-.5789374-.2383505-.1182369-.5139931-.1366133-.7659296-.0510626-.3804983.143048-.7456648.3239562-1.09.54.2808527-1.0497573.6977172-2.0583005 1.24-3 .2440793-.4550261.101585-1.0210631-.3288453-1.306288s-1.0072424-.1958368-1.3311547.206288c-.8945913 1.4925005-1.5080597 3.1363246-1.81 4.85-.584313-.5358649-1.2622764-.959592-2-1.25-.52743193-.2015839-1.11841605.0625681-1.31999998.59s.06256806 1.1184161.58999998 1.32c1.30449972.4449284 2.2174966 1.6255278 2.32 3 0 .5522847.4477153 1 1 1s1-.4477153 1-1c.1025034-1.3744722 1.0155003-2.5550716 2.32-3 .2736383-.0723289.5038097-.2572283.6334279-.5088401s.1465413-.5463665.0465721-.8111599z"/><path id="Shape" d="m52 30.68c-.0843151-.2523526-.26572-.4607006-.5040704-.5789374-.2383505-.1182369-.5139931-.1366133-.7659296-.0510626-.3804983.143048-.7456648.3239562-1.09.54.2808527-1.0497573.6977172-2.0583005 1.24-3 .2380487-.2955284.2883109-.7003343.1297641-1.0451054-.1585468-.3447712-.4985809-.570095-.8778815-.5817287-.3793005-.0116337-.7325045.1924276-.9118826.5268341-.8945913 1.4925005-1.5080597 3.1363246-1.81 4.85-.584313-.5358649-1.2622764-.959592-2-1.25-.5246705-.1767311-1.0932688.1053295-1.27.63-.1767311.5246705.1053295 1.0932689.63 1.27 1.2723579.475134 2.1460477 1.6544193 2.23 3.01 0 .5522847.4477153 1 1 1s1-.4477153 1-1c.1025034-1.3744722 1.0155003-2.5550716 2.32-3 .2736383-.0723289.5038097-.2572283.6334279-.5088401s.1465413-.5463665.0465721-.8111599z"/></g><path id="Shape" d="m40 39h-20c-.5522847 0-1-.4477153-1-1s.4477153-1 1-1h20c.5522847 0 1 .4477153 1 1s-.4477153 1-1 1z" fill="#24ae5f"/><rect id="Rectangle-path" fill="#f0c419" height="24" rx="2" width="32" x="14"/><path id="Shape" d="m30 9h2c.5522847 0 1-.44771525 1-1s-.4477153-1-1-1h-1v-1c0-.55228475-.4477153-1-1-1s-1 .44771525-1 1v1.18c-1.3649694.49528144-2.1792883 1.89703204-1.9333986 3.3281097.2458896 1.4310777 1.4813937 2.480625 2.9333986 2.4918903.5522847 0 1 .4477153 1 1s-.4477153 1-1 1h-2c-.5522847 0-1 .4477153-1 1s.4477153 1 1 1h1v1c0 .5522847.4477153 1 1 1s1-.4477153 1-1v-1.18c1.3649694-.4952814 2.1792883-1.897032 1.9333986-3.3281097-.2458896-1.4310777-1.4813937-2.480625-2.9333986-2.4918903-.5522847 0-1-.4477153-1-1 0-.55228475.4477153-1 1-1z" fill="#f29c1f"/><path id="Shape" d="m19 3h-1c-.5522847 0-1 .44771525-1 1s.4477153 1 1 1h1c.5522847 0 1-.44771525 1-1s-.4477153-1-1-1z" fill="#95a5a5"/><path id="Shape" d="m19 19h-1c-.5522847 0-1 .4477153-1 1s.4477153 1 1 1h1c.5522847 0 1-.4477153 1-1s-.4477153-1-1-1z" fill="#95a5a5"/><path id="Shape" d="m41 5h1c.5522847 0 1-.44771525 1-1s-.4477153-1-1-1h-1c-.5522847 0-1 .44771525-1 1s.4477153 1 1 1z" fill="#95a5a5"/><path id="Shape" d="m42 19h-1c-.5522847 0-1 .4477153-1 1s.4477153 1 1 1h1c.5522847 0 1-.4477153 1-1s-.4477153-1-1-1z" fill="#95a5a5"/></g></g></svg>