<svg id="Layer_3" height="512" viewBox="0 0 64 64" width="512" xmlns="http://www.w3.org/2000/svg" data-name="Layer 3"><path d="m62 58-10-20h-40l-10 20v4h60z" fill="#6bc148"/><g fill="#559b38"><path d="m1.892 58h60v4h-60z"/><path d="m43.714 49 2.224 9h2.06l-2.224-9h11.726l-1-2h-11.22l-2.224-9h-2.06l2.224 9h-10.22v-9h-2v9h-10.07l2.303-9h-2.064l-2.303 9h-11.366l-1 2h11.854l-2.304 9h2.065l2.303-9h10.582v9h2v-9z"/><path d="m27 45a1 1 0 0 0 .707-.293l2-2-1.414-1.414-1.293 1.293-1.293-1.293-1.414 1.414 2 2a1 1 0 0 0 .707.293z"/><path d="m25 52.586-1.293-1.293-1.414 1.414 2 2a1 1 0 0 0 1.414 0l2-2-1.414-1.414z"/><path d="m38 52.586-1.293-1.293-1.414 1.414 2 2a1 1 0 0 0 1.414 0l2-2-1.414-1.414z"/><path d="m38 45a1 1 0 0 0 .707-.293l2-2-1.414-1.414-1.293 1.293-1.293-1.293-1.414 1.414 2 2a1 1 0 0 0 .707.293z"/><path d="m49 45a1 1 0 0 0 .707-.293l2-2-1.414-1.414-1.293 1.293-1.293-1.293-1.414 1.414 2 2a1 1 0 0 0 .707.293z"/><path d="m52 52.586-1.293-1.293-1.414 1.414 2 2a1 1 0 0 0 1.414 0l2-2-1.414-1.414z"/><path d="m12 52.586-1.293-1.293-1.414 1.414 2 2a1 1 0 0 0 1.414 0l2-2-1.414-1.414z"/><path d="m15 45a1 1 0 0 0 .707-.293l2-2-1.414-1.414-1.293 1.293-1.293-1.293-1.414 1.414 2 2a1 1 0 0 0 .707.293z"/></g><path d="m45.878 26.338c5.829-10.36-.97-23.621-12.841-24.308q-.514-.03-1.037-.03t-1.037.03c-11.871.687-18.67 13.948-12.841 24.308l13.878 24.662z" fill="#aa2b24"/><circle cx="32" cy="18" fill="#e0e0e0" r="12"/><path d="m32 6a11.986 11.986 0 0 0 -10.382 18h15.382a3 3 0 0 0 3-3v-11.926a11.94 11.94 0 0 0 -8-3.074z" fill="#f2f2f2"/><path d="m25 18 7-7 7 7z" fill="#2763bb"/><path d="m27 18h10v7h-10z" fill="#fff"/><path d="m30 21h4v4h-4z" fill="#3079e6"/><path d="m34 13-2-2-5 5h5a2 2 0 0 0 2-2z" fill="#3079e6"/></svg>