<svg id="Flat" height="512" viewBox="0 0 512 512" width="512" xmlns="http://www.w3.org/2000/svg"><path d="m480 232-136 256-320-232 46.29-78.44a48 48 0 1 0 50.63-81.56l47.08-72 74.84 49.89 12.79 8.53z" fill="#b6b9ba"/><path d="m343.993 240a7.966 7.966 0 0 1 -4.288-1.251l-88-56a8 8 0 0 1 8.59-13.5l88 56a8 8 0 0 1 -4.3 14.751z" fill="#9aa3a8"/><path d="m440 352a48 48 0 0 0 48 48v88h-464v-88a48 48 0 0 0 0-96v-80h464v80a48 48 0 0 0 -48 48z" fill="#d0d2d4"/><g fill="#e9eef2"><path d="m400 224v32a8 8 0 0 1 -16 0v-32z"/><path d="m392 320a8 8 0 0 1 -8-8v-24a8 8 0 0 1 16 0v24a8 8 0 0 1 -8 8z"/><path d="m392 376a8 8 0 0 1 -8-8v-24a8 8 0 0 1 16 0v24a8 8 0 0 1 -8 8z"/><path d="m392 432a8 8 0 0 1 -8-8v-24a8 8 0 0 1 16 0v24a8 8 0 0 1 -8 8z"/><path d="m400 456v32h-16v-32a8 8 0 0 1 16 0z"/></g><path d="m104 272h232v104h-232z" fill="#9aa3a8"/><path d="m336 416h-232a8 8 0 0 1 0-16h232a8 8 0 0 1 0 16z" fill="#9aa3a8"/><path d="m336 448h-232a8 8 0 0 1 0-16h232a8 8 0 0 1 0 16z" fill="#9aa3a8"/><path d="m255.63 82.42a7.814 7.814 0 0 1 -.97 2.02l-16 24a8 8 0 1 1 -13.32-8.88l16-24a7.753 7.753 0 0 1 1.5-1.67z" fill="#e9eef2"/><path d="m199.993 160a8 8 0 0 1 -6.649-12.439l16-24a8 8 0 1 1 13.312 8.876l-16 24a7.991 7.991 0 0 1 -6.663 3.563z" fill="#e9eef2"/><path d="m167.993 208a8 8 0 0 1 -6.649-12.439l16-24a8 8 0 0 1 13.312 8.876l-16 24a7.991 7.991 0 0 1 -6.663 3.563z" fill="#e9eef2"/><path d="m359.993 208a7.966 7.966 0 0 1 -4.288-1.251l-88-56a8 8 0 0 1 8.59-13.5l88 56a8 8 0 0 1 -4.3 14.751z" fill="#9aa3a8"/></svg>