<svg id="Layer_1" enable-background="new 0 0 512 512" height="512" viewBox="0 0 512 512" width="512" xmlns="http://www.w3.org/2000/svg"><g><path d="m504 485.61h-14.79v-230.03c0-3.01-1.69-5.77-4.37-7.13l-122.79-62.46v-118.22c0-4.42-3.58-8-8-8h-15.02v-41.38c0-4.42-3.58-8-8-8h-167.72c-4.42 0-8 3.58-8 8v41.37h-15.02c-4.42 0-8 3.58-8 8v89.27h-83.1c-4.42 0-8 3.58-8 8v179.27l-38.54 28.1c-2.88 2.1-3.51 6.13-1.41 9.01l15.49 21.2c2.1 2.87 6.13 3.5 9 1.4l16.17-11.8v93.37h-15.5c-4.42 0-8 3.58-8 8s3.58 8 8 8h477.6c4.42 0 8-3.58 8-8 0-4.39-3.58-7.97-8-7.97z" fill="#e1effb"/><path d="m484.84 248.44-122.79-62.46v157.94l38.54 28.09c2.88 2.1 3.51 6.13 1.41 9.01l-15.49 21.2c-2.1 2.87-6.13 3.5-9 1.41l-15.46-11.27v92.85h127.16v-229.63c0-3.02-1.69-5.77-4.37-7.14z" fill="#8ac9fe"/><path d="m132.82 157.04h-83.63c-4.42 0-8 3.58-8 8v179.27l91.63-66.82z" fill="#8ac9fe"/><path d="m443.4 270.93h-51.53c-4.42 0-8 3.58-8 8v51.44c0 4.42 3.58 8 8 8h51.53c4.42 0 8-3.58 8-8v-51.44c0-4.42-3.59-8-8-8z" fill="#eceff1"/><path d="m136.48 274.83c2.26-1.65 5.33-1.65 7.59 0l57.26 41.74 57.8-42.14c2.26-1.65 5.33-1.65 7.59 0l95.33 69.49v-276.15c0-4.42-3.58-8-8-8h-213.76c-4.42 0-8 3.58-8 8v210.12z" fill="#81a7c6"/><path d="m400.59 372.01-133.87-97.59c-2.26-1.65-5.33-1.65-7.59 0l-57.8 42.14 33.21 24.21 28.38-20.7 114.58 83.54c2.87 2.1 6.9 1.47 9-1.41l15.49-21.2c2.11-2.85 1.48-6.89-1.4-8.99z" fill="#ff4c4c"/><path d="m443.4 352.95h-51.53c-4.06 0-7.4 3.02-7.92 6.93l16.64 12.13c2.88 2.1 3.51 6.13 1.41 9.01l-15.49 21.2c-.7.96-1.62 1.66-2.64 2.11v3.43 4.63c0 4.42 3.58 8 8 8h51.53c4.42 0 8-3.58 8-8v-51.44c0-4.42-3.59-8-8-8z" fill="#eceff1"/><path d="m179.7 485.61v-63.8c0-4.12-3.34-7.45-7.45-7.45h-63.94c-4.12 0-7.45 3.34-7.45 7.45v63.8z" fill="#f1ba84"/><path d="m140.28 421.8v63.8h39.42v-63.8c0-4.12-3.34-7.45-7.45-7.45h-39.42c4.11 0 7.45 3.34 7.45 7.45z" fill="#de9252"/><path d="m136.48 274.83-133.83 97.59c-2.88 2.1-3.51 6.13-1.41 9.01l15.49 21.2c2.1 2.87 6.13 3.5 9 1.4l114.54-83.54 114.58 83.54c2.87 2.1 6.9 1.47 9-1.41l15.49-21.2c2.1-2.88 1.47-6.91-1.41-9.01l-133.86-97.59c-2.26-1.64-5.33-1.64-7.59.01z" fill="#ff4c4c"/><path d="m277.94 372.42-2.42-1.76-11.68 15.99c-2.1 2.87-6.13 3.5-9 1.41l-114.58-83.56-114.55 83.54c-2.87 2.1-6.9 1.47-9-1.4l-11.67-15.97-2.4 1.75c-2.88 2.1-3.51 6.13-1.41 9.01l15.49 21.2c2.1 2.87 6.13 3.5 9 1.4l114.54-83.54 114.58 83.54c2.87 2.1 6.9 1.47 9-1.41l15.49-21.2c2.12-2.87 1.49-6.9-1.39-9z" fill="#f33939"/><ellipse cx="140.29" cy="373.94" fill="#ccdfed" rx="23.62" ry="23.6"/><path d="m239.88 114.87v51.44c0 4.42-3.58 8-8 8h-51.53c-4.42 0-8-3.58-8-8v-51.44c0-4.42 3.58-8 8-8h51.53c4.42 0 8 3.59 8 8zm74.12-8h-51.5c-4.42 0-8 3.58-8 8v51.44c0 4.42 3.58 8 8 8h51.5c4.42 0 8-3.58 8-8v-51.44c0-4.41-3.58-8-8-8zm-82.12 82.02h-51.53c-4.42 0-8 3.58-8 8v51.44c0 4.42 3.58 8 8 8h51.53c4.42 0 8-3.58 8-8v-51.44c0-4.42-3.58-8-8-8zm82.12 0h-51.5c-4.42 0-8 3.58-8 8v51.44c0 4.42 3.58 8 8 8h51.5c4.42 0 8-3.58 8-8v-51.44c0-4.42-3.58-8-8-8z" fill="#eceff1"/><path d="m443.4 270.93h-14.68c4.42 0 8 3.58 8 8v51.44c0 4.42-3.58 8-8 8h14.68c4.42 0 8-3.58 8-8v-51.44c0-4.42-3.59-8-8-8z" fill="#ccdfed"/><path d="m443.4 352.95h-14.68c4.42 0 8 3.58 8 8v51.44c0 4.42-3.58 8-8 8h14.68c4.42 0 8-3.58 8-8v-51.44c0-4.42-3.59-8-8-8z" fill="#ccdfed"/><g><g fill="#ccdfed"><path d="m239.81 248.33v-51.44c0-.24.02-.47.04-.7-.36-4.09-3.78-7.3-7.96-7.3h-14.68c4.42 0 8 3.58 8 8v51.44c0 4.42-3.58 8-8 8h14.68c4.18 0 7.61-3.21 7.96-7.3-.03-.23-.04-.47-.04-.7z"/><path d="m225.19 114.87v51.44c0 4.42-3.58 8-8 8h14.68c4.18 0 7.61-3.21 7.96-7.3-.02-.23-.04-.47-.04-.7v-51.44c0-.24.02-.47.04-.7-.36-4.09-3.78-7.3-7.96-7.3h-14.68c4.42 0 8 3.59 8 8z"/><path d="m314 106.87h-14.68c4.42 0 8 3.58 8 8v51.44c0 4.42-3.58 8-8 8h14.68c4.42 0 8-3.58 8-8v-51.44c0-4.41-3.58-8-8-8z"/><path d="m314 188.89h-14.68c4.42 0 8 3.58 8 8v51.44c0 4.42-3.58 8-8 8h14.68c4.42 0 8-3.58 8-8v-51.44c0-4.42-3.58-8-8-8z"/></g></g><g><g><path d="m504 501.61h-477.6c-4.42 0-8-3.58-8-8s3.58-8 8-8h477.6c4.42 0 8 3.58 8 8s-3.58 8-8 8z" fill="#2d5871"/></g></g><path d="m223.53 485.61h15.11v-93.4l-98.36-71.72-7.56 5.51 90.81 66.21z" fill="#ccdfed"/><path d="m346.18 485.2h15.11v-93.39l-98.37-71.72-7.55 5.51 90.81 66.21z" fill="#ccdfed"/><path d="m400.59 372.01-2.42-1.76-11.68 15.99c-2.1 2.87-6.13 3.5-9 1.41l-114.58-83.55-39.33 28.68 10.97 8 28.38-20.7 114.58 83.54c2.87 2.1 6.9 1.47 9-1.41l15.49-21.2c2.1-2.86 1.47-6.9-1.41-9z" fill="#f33939"/><path d="m339.03 59.77v-41.38c0-4.42-3.58-8-8-8h-167.72c-4.42 0-8 3.58-8 8v41.37h183.72z" fill="#5c90b9"/><path d="m346.18 67.8v264.55l15.87 11.57v-276.15c0-4.42-3.58-8-8-8h-15.87c4.42 0 8 3.59 8 8.03z" fill="#79a3bf"/><path d="m132.29 188.89h-48.28c-4.42 0-8 3.58-8 8v51.44c0 4.42 3.58 8 8 8h48.29v-67.44z" fill="#eceff1"/><path d="m115.09 157.04h17.2v31.85h-17.2z" fill="#60b7ff"/><path d="m115.09 188.89h17.2v67.11h-17.2z" fill="#e1effb"/><g fill="#60b7ff"><path d="m132.29 277.88v-21.55h-17.2v34.09z"/><path d="m472.01 485.2h17.2v-229.62c0-3.01-1.69-5.77-4.37-7.13l-15.02-7.64c1.38 1.51 2.19 3.53 2.19 5.68z"/></g></g></svg>