<svg id="Layer_1" enable-background="new 0 0 512 512" viewBox="0 0 512 512" xmlns="http://www.w3.org/2000/svg"><path d="m492.21 33.86h-219.94c-10.89 0-19.76 8.86-19.76 19.76v142.99l-6.57-3.53c-8.12-4.39-17.79-4.34-25.88.12l-11.34 6.08v-58.78c0-9.55-7.77-17.32-17.32-17.32h-174.08c-9.55 0-17.32 7.77-17.32 17.32v329.64c0 4.42 3.58 7.99 7.99 7.99h110.07 76 78.09 76.03 142.67c11.66 0 21.15-9.47 21.15-21.12v-403.39c0-10.89-8.88-19.76-19.79-19.76zm-264.55 173.41c.03-.02.06-.04.1-.05 3.31-1.84 7.27-1.86 10.6-.06l148.21 79.51c2.6 1.4 4.5 3.73 5.35 6.56s.54 5.83-.87 8.45c-2.87 5.36-9.59 7.37-14.98 4.49l-12.77-6.85c-.29-.18-.6-.35-.92-.49l-125.48-67.35c-2.36-1.27-5.2-1.27-7.56 0l-125.73 67.46c-.16.08-.32.16-.48.26l-12.99 6.97c-5.38 2.88-12.1.86-14.98-4.51-1.4-2.6-1.7-5.59-.85-8.42s2.76-5.17 5.35-6.57l45.47-24.39c.07-.04.13-.07.2-.11l40.29-21.61c.16-.08.33-.17.48-.26zm197.48 254.88h-58.3c.15-.95.25-1.92.25-2.92v-80.42h57.09c.51 0 .96.45.96.96zm-74.04-2.92c0 1.58-1.34 2.92-2.92 2.92h-68.03v-77.75c0-4.42-3.58-7.99-7.99-7.99h-78.09c-4.41 0-7.99 3.58-7.99 7.99v77.75h-68c-1.58 0-2.92-1.34-2.92-2.92v-148.33l117.98-63.3 117.98 63.31v148.32zm-197.01-230.63-24.66 13.23v-41.88h24.66zm-138.1-88.1c0-.73.6-1.33 1.33-1.33h174.08c.73 0 1.33.6 1.33 1.33v67.37l-22.65 12.15v-20.33c0-8.67-7.07-15.73-15.76-15.73h-25.14c-8.67 0-15.73 7.06-15.73 15.73v50.72l-41.35 22.18c-6.36 3.42-11.01 9.12-13.1 16.04-2.08 6.93-1.35 14.25 2.08 20.61 7.05 13.11 23.48 18.05 36.61 11.02l1.46-.79v139.75c0 1 .1 1.96.25 2.92h-83.41zm186.07 321.65v-69.76h62.11v69.76zm293.95-5.13c0 2.83-2.31 5.13-5.16 5.13h-49.72v-82.37c0-9.35-7.6-16.95-16.95-16.95h-57.09v-43.33l1.44.77h.01c4.06 2.17 8.44 3.21 12.75 3.21 5.63 0 11.15-1.77 15.74-5.03 1.36 5.27 6.14 9.18 11.81 9.18h39.57c6.74 0 12.22-5.49 12.22-12.25v-39.54c0-6.75-5.48-12.25-12.22-12.25h-39.57c-6.18 0-11.29 4.63-12.09 10.6-.83-.58-1.7-1.12-2.61-1.6l-73.42-39.39h34.95c6.74 0 12.22-5.49 12.22-12.25v-39.57c0-6.74-5.48-12.22-12.22-12.22h-39.57c-6.75 0-12.25 5.48-12.25 12.22v39.57c0 1.21.18 2.37.51 3.47l-35.86-19.23v-151.57c0-2.08 1.69-3.77 3.77-3.77h219.94c2.09 0 3.8 1.69 3.8 3.77zm-83.4-145.39v-32.06h32.03v32.06zm-92.77-94.42v-32.06h32.06v32.06zm35.83-142.47h-39.57c-6.75 0-12.25 5.48-12.25 12.22v39.57c0 6.74 5.49 12.22 12.25 12.22h39.57c6.74 0 12.22-5.48 12.22-12.22v-39.57c-.01-6.74-5.49-12.22-12.22-12.22zm-3.77 48.02h-32.06v-32.03h32.06zm96.52-48.02h-39.57c-6.74 0-12.22 5.48-12.22 12.22v39.57c0 6.74 5.48 12.22 12.22 12.22h39.57c6.74 0 12.22-5.48 12.22-12.22v-39.57c-.01-6.74-5.49-12.22-12.22-12.22zm-3.77 48.02h-32.03v-32.03h32.03zm3.77 46.4h-39.57c-6.74 0-12.22 5.48-12.22 12.22v39.57c0 6.75 5.48 12.25 12.22 12.25h39.57c6.74 0 12.22-5.49 12.22-12.25v-39.57c-.01-6.74-5.49-12.22-12.22-12.22zm-3.77 48.05h-32.03v-32.06h32.03z"/></svg>