<svg id="Capa_1" enable-background="new 0 0 469.329 469.329" height="512" viewBox="0 0 469.329 469.329" width="512" xmlns="http://www.w3.org/2000/svg"><g><g id="Layer_2_28_"><path d="m463.083 219.32-128-128c-8.475-8.185-21.98-7.95-30.165.525-7.985 8.267-7.985 21.374 0 29.641l91.584 91.584h-375.169c-11.782-.001-21.333 9.55-21.333 21.332s9.551 21.333 21.333 21.333h375.168l-91.584 91.584c-8.475 8.185-8.709 21.691-.524 30.165 8.185 8.475 21.691 8.709 30.165.524.178-.172.353-.346.524-.524l128-128c8.329-8.33 8.329-21.834.001-30.164z"/></g></g></svg>