<svg height="512" viewBox="0 0 64 64" width="512" xmlns="http://www.w3.org/2000/svg"><g id="_18_search" data-name="18 search"><path d="m45.673 25.09a20.459 20.459 0 0 1 -2.773 10.327 18.615 18.615 0 0 1 -1.071 1.65v.01a22.027 22.027 0 0 1 -2.191 2.567 21.189 21.189 0 0 1 -2.577 2.191 17.867 17.867 0 0 1 -1.66 1.071 20.639 20.639 0 1 1 10.272-17.816z" fill="#dcdfe0"/><path d="m35.018 35.021a14.048 14.048 0 1 1 0-19.872 13.952 13.952 0 0 1 0 19.872z" fill="#fcfdff"/><path d="m57.959 57.953a5.336 5.336 0 0 1 -7.508 0l-15.051-15.047a17.867 17.867 0 0 0 1.66-1.071 21.189 21.189 0 0 0 2.577-2.191 22.027 22.027 0 0 0 2.191-2.567v-.01a18.615 18.615 0 0 0 1.071-1.65l15.051 15.037a5.321 5.321 0 0 1 .009 7.499z" fill="#c2c2c3"/></g></svg>